<svg xmlns="http://www.w3.org/2000/svg" width="32" height="32" viewBox="0 0 32 32">
  <g fill="none">
    <circle cx="16" cy="16" r="16" fill="#000000"/>
    <path d="M9.925 19.287a.417.417 0 01.294-.122h14.535c.26 0 .391.315.205.499l-2.717 2.7a.417.417 0 01-.294.122H7.414a.292.292 0 01-.205-.499l2.717-2.7zm0-9.8a.437.437 0 01.294-.122h14.535c.26 0 .391.315.205.499l-2.717 2.7a.417.417 0 01-.294.122H7.414a.292.292 0 01-.205-.499l2.717-2.7zm14.829 4.778H10.22a.417.417 0 00-.294.122l-2.717 2.7a.292.292 0 00.205.499h14.535a.417.417 0 00.294-.122l2.717-2.7a.292.292 0 00-.205-.499z" fill="#FFF"/>
  </g>
</svg>